<svg xmlns="http://www.w3.org/2000/svg" version="1.2" baseProfile="tiny" width="146.5" height="146.5" viewBox="26.75 26.75 146.5 146.5"><path d="M63,63 C63,20 137,20 137,63 C180,63 180,137 137,137 C137,180 63,180 63,137 C20,137 20,63 63,63 Z" stroke-width="4" stroke="black" fill="rgb(255,255,128)" fill-opacity="1" ></path><path d="m 85,140 30,0 c 0,-20 -30,-20 -30,0 z m 15,-15 0,-65 m -15,80 0,-65 c 0,-20 30,-20 30,0 l 0,65" stroke-width="4" stroke="black" fill="none" ></path><path d="m 85,110 30,0 m -30,-20 30,0 m -30,10 30,0" stroke-width="4" stroke="black" fill="none" ></path><text x="68" y="110" text-anchor="middle" font-size="25" font-family="Arial" font-weight="bold" stroke-width="4" stroke="none" fill="black" >E</text><text x="132" y="110" text-anchor="middle" font-size="25" font-family="Arial" font-weight="bold" stroke-width="4" stroke="none" fill="black" >R</text></svg>
